# xmcd CD database file
#
# Track frame offsets:
#	150
#	24840
#	45863
#	67953
#	88957
#	110899
#	129781
#	156326
#	178352
#	199560
#
# Disc length: 2840 seconds
#
# Revision: 1
# Processed by: cddbd v1.5.2PL0 Copyright (c) Steve Scherf et al.
# Submitted via: CDex 1.70beta3
#
DISCID=7f0b160a
DTITLE=Grapevine - D'eracine'
DYEAR=2005
DGENRE=Rock
TTITLE0=13/0.9
TTITLE1=その未来
TTITLE2=少年
TTITLE3=少年
TTITLE4=REW
TTITLE5=REW
TTITLE6=Kingdom Come
TTITLE7=それを魔法と呼ぶのなら
TTITLE8=Graveyard
TTITLE9=スカイライン
EXTD=YEAR: 2005
EXTT0=
EXTT1=
EXTT2=
EXTT3=
EXTT4=
EXTT5=
EXTT6=
EXTT7=
EXTT8=
EXTT9=
PLAYORDER=
